<svg id="Calque_1" data-name="Calque 1" xmlns="http://www.w3.org/2000/svg" viewBox="0 0 1366 768"><defs><style>.cls-1{opacity:0.37;}.cls-2,.cls-3{fill:#fff;}.cls-3{opacity:0.75;}</style></defs><g class="cls-1"><path class="cls-2" d="M1266.2,404.33c-91.28,2.42-170.45,42.62-214.63,101.22-47.35-80.13-186.35-135.62-348.87-131.3-127.15,3.38-238,42.56-300.8,99C347.41,431.94,269.21,407.12,183,409.41,22,413.69-106,510.72-102.89,626.12s136,205.49,297,201.21A393.24,393.24,0,0,0,301.12,809.8C348.57,878.3,450.66,924.07,567.69,921c114.63-3.05,212.45-52.17,257.52-120.84,38.56,27.86,91.52,44.36,149.54,42.82,62.89-1.68,118.7-24.18,156-58.41,42,21.64,92.42,33.62,146.38,32.18,142.17-3.78,255-99.16,251.93-213S1408.36,400.55,1266.2,404.33Z"/></g><path class="cls-3" d="M1441.17,438.43c-55.82,0-102.24,62.79-112,145.64a236.16,236.16,0,0,0-112.68-28.2c-76.26,0-143.57,35.37-183.87,89.34C990,591.55,914.44,555.87,828.29,555.87a295.17,295.17,0,0,0-99.58,17A232.08,232.08,0,0,0,587.64,525c-58.84,0-112.7,22.1-154.38,58.74-33.34-30.52-77-49-124.79-49a182.41,182.41,0,0,0-92.18,25C184.11,476,120,419,46.17,419-60,419-146,536.81-146,682.15S-60,945.29,46.17,945.29c50.36,0,96.19-26.53,130.45-69.93,34.12,34.54,80.61,55.8,131.85,55.8a182,182,0,0,0,80.27-18.61c43,66.61,116,110.45,198.9,110.45,74.77,0,141.53-35.68,185.42-91.56a303.76,303.76,0,0,0,55.23,5c78.36,0,148-29.51,192-75.22,37.86,64.28,111.54,107.89,196.23,107.89,111.71,0,204.25-75.87,220.73-175,1.3.07,2.6.11,3.91.11,62.87,0,113.83-79.66,113.83-177.93S1504,438.43,1441.17,438.43Z"/></svg>